<svg width="3580" height="1016" viewBox="0 0 3580 1016" fill="none" xmlns="http://www.w3.org/2000/svg">
<path d="M945.442 478.454C961.87 488.121 961.87 511.879 945.442 521.546L283.924 910.839C267.258 920.647 246.244 908.63 246.244 889.293V110.707C246.244 91.3697 267.258 79.3535 283.924 89.161L945.442 478.454Z" fill="url(#paint0_linear_17_73)"/>
<rect x="247" y="667" width="392.432" height="33.3333" rx="16.6667" fill="white"/>
<rect x="414.998" y="575" width="392.432" height="33.3333" rx="16.6667" fill="white"/>
<rect x="566" y="483" width="392.432" height="33.3333" rx="16.6667" fill="white"/>
<path d="M1163.59 254.266H1294.45C1392.11 254.266 1464.05 281.935 1510.27 337.273C1557.15 391.961 1580.58 477.573 1580.58 594.109C1580.58 709.344 1557.15 794.305 1510.27 848.992C1464.05 904.331 1392.11 932 1294.45 932H1163.59V254.266ZM1292.5 856.805C1366.07 856.805 1416.85 837.599 1444.84 799.188C1473.49 761.427 1487.81 692.417 1487.81 592.156C1487.81 491.896 1473.49 423.211 1444.84 386.102C1429.87 366.57 1409.36 352.247 1383.32 343.133C1357.93 333.367 1327.65 328.484 1292.5 328.484H1251.48V856.805H1292.5ZM1896.99 944.695C1829.93 944.695 1778.5 921.909 1742.69 876.336C1707.54 830.763 1689.96 765.008 1689.96 679.07C1689.96 592.482 1707.54 526.076 1742.69 479.852C1778.5 433.628 1829.61 410.516 1896.01 410.516C1962.42 410.516 2013.2 433.628 2048.36 479.852C2084.16 526.076 2102.07 592.482 2102.07 679.07C2102.07 765.008 2084.49 830.763 2049.33 876.336C2014.18 921.909 1963.4 944.695 1896.99 944.695ZM1896.01 873.406C1935.08 873.406 1965.02 856.479 1985.86 822.625C2007.34 788.771 2018.08 740.594 2018.08 678.094C2018.08 614.943 2007.67 566.44 1986.83 532.586C1965.35 498.732 1935.08 481.805 1896.01 481.805C1856.3 481.805 1826.03 498.732 1805.19 532.586C1784.36 566.44 1773.94 614.943 1773.94 678.094C1773.94 740.594 1784.36 788.771 1805.19 822.625C1826.68 856.479 1856.95 873.406 1896.01 873.406ZM2449.72 944.695C2375.51 944.695 2317.56 920.932 2275.9 873.406C2233.58 825.88 2212.42 761.753 2212.42 681.023C2212.42 630.242 2220.56 584.669 2236.83 544.305C2253.76 503.94 2278.83 471.714 2312.03 447.625C2345.23 422.885 2385.92 410.516 2434.1 410.516C2498.55 410.516 2548.36 432.326 2583.51 475.945C2618.67 519.565 2636.25 579.786 2636.25 656.609V697.625H2294.45V700.555C2294.45 753.94 2307.47 796.258 2333.51 827.508C2360.21 858.107 2399.27 873.406 2450.7 873.406C2480.65 873.406 2509.62 868.849 2537.61 859.734C2565.61 849.969 2592.63 837.599 2618.67 822.625V906.609C2591.33 918.979 2563.66 928.419 2535.66 934.93C2507.67 941.44 2479.02 944.695 2449.72 944.695ZM2557.15 632.195C2557.15 604.201 2553.24 578.81 2545.43 556.023C2537.61 533.237 2524.92 515.008 2507.34 501.336C2489.11 488.315 2465.67 481.805 2437.03 481.805C2407.73 481.805 2383.32 488.641 2363.79 502.312C2344.26 515.984 2328.96 534.214 2317.89 557C2306.82 579.135 2300.31 604.201 2298.36 632.195H2557.15ZM2816.91 423.211H2888.2L2896.99 523.797C2910.66 487.339 2930.84 459.344 2957.54 439.812C2984.88 420.281 3017.43 410.516 3055.19 410.516C3095.56 410.516 3129.74 421.583 3157.73 443.719V528.68C3126.48 501.987 3090.02 488.641 3048.36 488.641C2999.53 488.641 2962.09 505.242 2936.05 538.445C2910.01 570.997 2896.99 617.872 2896.99 679.07V932H2816.91V423.211Z" fill="url(#paint1_linear_17_73)"/>
<path d="M2159 166.667L2094.05 41.6666L2223.95 41.6666L2159 166.667Z" fill="#9125A0"/>
<path d="M2084 300L2019.05 175L2148.95 175L2084 300Z" fill="#9125A0"/>
<path d="M2234 300L2169.05 175L2298.95 175L2234 300Z" fill="#9125A0"/>
<defs>
<linearGradient id="paint0_linear_17_73" x1="-68.5192" y1="500" x2="1125.13" y2="500" gradientUnits="userSpaceOnUse">
<stop stop-color="#9125A0"/>
<stop offset="1" stop-color="#5F1981"/>
</linearGradient>
<linearGradient id="paint1_linear_17_73" x1="1154.68" y1="512.296" x2="3886.79" y2="512.296" gradientUnits="userSpaceOnUse">
<stop stop-color="#9125A0"/>
<stop offset="1" stop-color="#5F1981"/>
</linearGradient>
</defs>
</svg>
